<?xml version="1.0" encoding="utf-8"?>
<!-- Generator: Adobe Illustrator 16.0.3, SVG Export Plug-In . SVG Version: 6.00 Build 0)  -->
<!DOCTYPE svg PUBLIC "-//W3C//DTD SVG 1.1//EN" "http://www.w3.org/Graphics/SVG/1.1/DTD/svg11.dtd">
<svg version="1.1" xmlns="http://www.w3.org/2000/svg" xmlns:xlink="http://www.w3.org/1999/xlink" x="0px" y="0px" width="69.27px"
	 height="69.267px" viewBox="0 0 69.27 69.267" enable-background="new 0 0 69.27 69.267" xml:space="preserve">
<g id="BG">
</g>
<g id="UI">
</g>
<g id="_x24_">
	<g>
		<g>
			<g>
				<circle fill="#FF9933" cx="34.635" cy="34.633" r="34.635"/>
				<circle fill="#E07117" cx="34.635" cy="34.633" r="27.079"/>
				<path fill="#CC6633" d="M8.971,35.498c0-14.477,11.735-26.215,26.214-26.215c14.477,0,26.215,11.738,26.215,26.215
					c0,3.938-0.875,7.67-2.43,11.018c1.756-3.586,2.744-7.62,2.744-11.883c0-14.954-12.125-27.077-27.079-27.077
					c-14.956,0-27.079,12.123-27.079,27.077c0,14.956,12.123,27.079,27.079,27.079c0.091,0,0.183-0.005,0.274-0.007
					C20.558,61.559,8.971,49.883,8.971,35.498z"/>
			</g>
		</g>
		<g>
			<g>
				<g>
					<path fill="#CC6633" d="M40.943,16.812V52.3h-9.806V29.045c-1.587,1.206-3.122,2.183-4.605,2.929
						c-1.484,0.745-3.346,1.46-5.582,2.142v-7.95c3.301-1.063,5.863-2.34,7.688-3.832c1.824-1.491,3.252-3.332,4.283-5.521H40.943z"
						/>
				</g>
			</g>
			<g>
				<g>
					<path fill="#FFA142" d="M39.875,16.812v33.592h-9.282V28.392c-1.502,1.142-2.955,2.065-4.359,2.771
						c-1.404,0.707-3.166,1.382-5.283,2.028v-7.525c3.124-1.006,5.55-2.215,7.277-3.627c1.727-1.412,3.078-3.154,4.055-5.226H39.875
						z"/>
				</g>
			</g>
		</g>
	</g>
</g>
<g id="選單">
</g>
</svg>
