<?xml version="1.0" encoding="utf-8"?>
<!-- Generator: Adobe Illustrator 16.0.0, SVG Export Plug-In . SVG Version: 6.00 Build 0)  -->
<!DOCTYPE svg PUBLIC "-//W3C//DTD SVG 1.1//EN" "http://www.w3.org/Graphics/SVG/1.1/DTD/svg11.dtd">
<svg version="1.1" id="圖層_1" xmlns="http://www.w3.org/2000/svg" xmlns:xlink="http://www.w3.org/1999/xlink" x="0px" y="0px"
	 width="353.314px" height="199.418px" viewBox="0 0 353.314 199.418" enable-background="new 0 0 353.314 199.418"
	 xml:space="preserve">
<g id="BG">
</g>
<path opacity="0.2" fill="#231815" enable-background="new    " d="M353.314,180.337c0,10.538-8.464,19.082-18.908,19.082H18.908
	C8.465,199.418,0,190.875,0,180.337V19.083C0,8.543,8.465,0,18.908,0h315.499c10.443,0,18.908,8.543,18.908,19.083L353.314,180.337
	L353.314,180.337z"/>
<linearGradient id="SVGID_1_" gradientUnits="userSpaceOnUse" x1="84.2249" y1="150.6523" x2="84.2248" y2="-43.5879" gradientTransform="matrix(1 0 0 -1 91.1001 152.8184)">
	<stop  offset="0.2849" style="stop-color:#EFEFEF"/>
	<stop  offset="0.6452" style="stop-color:#B5B5B6"/>
	<stop  offset="0.6882" style="stop-color:#C0C0C1"/>
	<stop  offset="0.8074" style="stop-color:#DADADA"/>
	<stop  offset="0.9149" style="stop-color:#EAEAEA"/>
	<stop  offset="1" style="stop-color:#EFEFEF"/>
</linearGradient>
<path fill="url(#SVGID_1_)" d="M348.981,177.82c0,10.265-8.321,18.586-18.586,18.586H20.254c-10.266,0-18.586-8.321-18.586-18.586
	V20.753c0-10.265,8.321-18.587,18.586-18.587h310.142c10.265,0,18.586,8.322,18.586,18.587V177.82z"/>
<path fill="#9FA0A0" d="M342.391,174.841c0,9.874-8.008,17.88-17.884,17.88H26.139c-9.874,0-17.882-8.007-17.882-17.88V23.734
	c0-9.875,8.008-17.881,17.882-17.881h298.369c9.877,0,17.884,8.006,17.884,17.881L342.391,174.841L342.391,174.841z"/>
<path fill="#FFFFFF" d="M338.632,173.141c0,9.651-7.824,17.479-17.479,17.479H29.495c-9.653,0-17.479-7.827-17.479-17.479V25.434
	c0-9.653,7.825-17.479,17.479-17.479h291.659c9.653,0,17.479,7.826,17.479,17.479L338.632,173.141L338.632,173.141z"/>
<g id="_x24_">
</g>
</svg>
